#N canvas 144 402 450 300 12;
#X obj 156 154 osc~;
#X obj 156 73 random 40;
#X obj 156 97 + 30;
#X obj 156 121 mtof;
#X obj 156 38 loadbang;
#X obj 109 215 outlet~;
#X msg 310 168 \; pd dsp 1;
#X obj 306 129 loadbang;
#X obj 200 252 dac~;
#X obj 206 225 *~ 0.3;
#X obj 304 25 r process;
#X msg 299 94 seed \$1;
#X obj 284 55 t b f;
#X connect 0 0 5 0;
#X connect 0 0 9 0;
#X connect 1 0 2 0;
#X connect 2 0 3 0;
#X connect 3 0 0 0;
#X connect 4 0 1 0;
#X connect 7 0 6 0;
#X connect 9 0 8 0;
#X connect 9 0 8 1;
#X connect 10 0 12 0;
#X connect 11 0 1 0;
#X connect 12 0 1 0;
#X connect 12 1 11 0;
